STARTFONT 2.3
FONT -FontForge-Shadows Into Light-Book-R-Normal--10-100-72-72-P-42-ISO10646-1
SIZE 10 72 72  2
FONTBOUNDINGBOX 15 17 -2 -5
COMMENT "Generated by fontforge, http://fontforge.sourceforge.net"
COMMENT "Copyright (c) 2010, Kimberly Geswein (kimberlygeswein.com)"
STARTPROPERTIES 40
FOUNDRY "FontForge"
FAMILY_NAME "Shadows Into Light"
WEIGHT_NAME "Book"
SLANT "R"
SETWIDTH_NAME "Normal"
ADD_STYLE_NAME ""
PIXEL_SIZE 10
POINT_SIZE 100
RESOLUTION_X 72
RESOLUTION_Y 72
SPACING "P"
AVERAGE_WIDTH 42
CHARSET_REGISTRY "ISO10646"
CHARSET_ENCODING "1"
FONTNAME_REGISTRY ""
CHARSET_COLLECTIONS "ISO8859-2 ISO8859-9 ISO8859-4 ISO10646-1"
BITS_PER_PIXEL 2
FONT_NAME "ShadowsIntoLight"
FACE_NAME "Shadows Into Light"
COPYRIGHT "Copyright (c) 2010, Kimberly Geswein (kimberlygeswein.com)"
FONT_VERSION "001.000"
FONT_ASCENT 8
FONT_DESCENT 2
UNDERLINE_POSITION 0
UNDERLINE_THICKNESS 0
X_HEIGHT 5
CAP_HEIGHT 6
RAW_ASCENT 799
RAW_DESCENT 200
NORM_SPACE 5
RELATIVE_WEIGHT 40
RELATIVE_SETWIDTH 50
SUPERSCRIPT_X 0
SUPERSCRIPT_Y 4
SUPERSCRIPT_SIZE 6
SUBSCRIPT_X 0
SUBSCRIPT_Y 1
SUBSCRIPT_SIZE 6
AVG_LOWERCASE_WIDTH 38
AVG_UPPERCASE_WIDTH 49
ENDPROPERTIES
CHARS 352
STARTCHAR space
ENCODING 32
SWIDTH 450 0
DWIDTH 5 0
BBX 1 1 0 0
BITMAP
00
ENDCHAR
STARTCHAR exclam
ENCODING 33
SWIDTH 137 0
DWIDTH 1 0
BBX 1 6 0 3
BITMAP
40
40
40
40
80
40
ENDCHAR
STARTCHAR quotedbl
ENCODING 34
SWIDTH 212 0
DWIDTH 2 0
BBX 2 3 0 5
BITMAP
50
50
50
ENDCHAR
STARTCHAR numbersign
ENCODING 35
SWIDTH 450 0
DWIDTH 5 0
BBX 5 5 0 1
BITMAP
1400
2900
2540
2900
6100
ENDCHAR
STARTCHAR dollar
ENCODING 36
SWIDTH 445 0
DWIDTH 4 0
BBX 4 9 0 -1
BITMAP
04
08
24
84
59
05
09
08
04
ENDCHAR
STARTCHAR percent
ENCODING 37
SWIDTH 450 0
DWIDTH 5 0
BBX 5 8 0 0
BITMAP
0100
5400
9800
4400
1600
1240
1100
1000
ENDCHAR
STARTCHAR ampersand
ENCODING 38
SWIDTH 356 0
DWIDTH 4 0
BBX 3 4 0 1
BITMAP
10
68
64
54
ENDCHAR
STARTCHAR quotesingle
ENCODING 39
SWIDTH 155 0
DWIDTH 2 0
BBX 1 3 0 3
BITMAP
80
40
40
ENDCHAR
STARTCHAR parenleft
ENCODING 40
SWIDTH 291 0
DWIDTH 3 0
BBX 3 8 0 0
BITMAP
14
20
50
40
40
80
40
20
ENDCHAR
STARTCHAR parenright
ENCODING 41
SWIDTH 241 0
DWIDTH 2 0
BBX 2 8 0 0
BITMAP
40
50
10
10
10
10
20
10
ENDCHAR
STARTCHAR asterisk
ENCODING 42
SWIDTH 481 0
DWIDTH 5 0
BBX 5 4 0 1
BITMAP
1500
6D40
6900
5400
ENDCHAR
STARTCHAR plus
ENCODING 43
SWIDTH 466 0
DWIDTH 5 0
BBX 5 4 0 1
BITMAP
1400
1940
6400
0400
ENDCHAR
STARTCHAR comma
ENCODING 44
SWIDTH 112 0
DWIDTH 1 0
BBX 1 2 0 -1
BITMAP
80
40
ENDCHAR
STARTCHAR hyphen
ENCODING 45
SWIDTH 399 0
DWIDTH 4 0
BBX 4 1 0 2
BITMAP
69
ENDCHAR
STARTCHAR period
ENCODING 46
SWIDTH 128 0
DWIDTH 1 0
BBX 1 1 0 0
BITMAP
40
ENDCHAR
STARTCHAR slash
ENCODING 47
SWIDTH 306 0
DWIDTH 3 0
BBX 3 8 0 -1
BITMAP
04
04
10
10
10
40
40
40
ENDCHAR
STARTCHAR zero
ENCODING 48
SWIDTH 308 0
DWIDTH 3 0
BBX 3 6 0 0
BITMAP
10
54
44
44
44
24
ENDCHAR
STARTCHAR one
ENCODING 49
SWIDTH 112 0
DWIDTH 1 0
BBX 1 6 0 0
BITMAP
40
40
40
40
40
40
ENDCHAR
STARTCHAR two
ENCODING 50
SWIDTH 512 0
DWIDTH 5 0
BBX 5 6 0 0
BITMAP
1400
5400
0400
0800
1540
2500
ENDCHAR
STARTCHAR three
ENCODING 51
SWIDTH 461 0
DWIDTH 5 0
BBX 5 7 0 0
BITMAP
1800
4400
1800
2540
0140
0600
1800
ENDCHAR
STARTCHAR four
ENCODING 52
SWIDTH 503 0
DWIDTH 5 0
BBX 5 8 0 0
BITMAP
0100
0A00
0600
2200
6640
4200
0200
0100
ENDCHAR
STARTCHAR five
ENCODING 53
SWIDTH 478 0
DWIDTH 5 0
BBX 5 7 0 0
BITMAP
5540
9000
8400
9600
4100
0800
1400
ENDCHAR
STARTCHAR six
ENCODING 54
SWIDTH 375 0
DWIDTH 4 0
BBX 4 8 0 0
BITMAP
20
10
40
40
49
51
94
64
ENDCHAR
STARTCHAR seven
ENCODING 55
SWIDTH 458 0
DWIDTH 5 0
BBX 4 8 0 0
BITMAP
05
66
02
01
04
04
08
05
ENDCHAR
STARTCHAR eight
ENCODING 56
SWIDTH 333 0
DWIDTH 3 0
BBX 3 7 0 0
BITMAP
28
44
44
54
24
14
24
ENDCHAR
STARTCHAR nine
ENCODING 57
SWIDTH 475 0
DWIDTH 5 0
BBX 5 7 0 0
BITMAP
0900
2700
4900
A140
0140
0040
0040
ENDCHAR
STARTCHAR colon
ENCODING 58
SWIDTH 120 0
DWIDTH 1 0
BBX 1 1 0 1
BITMAP
40
ENDCHAR
STARTCHAR semicolon
ENCODING 59
SWIDTH 121 0
DWIDTH 1 0
BBX 1 4 0 -1
BITMAP
40
00
80
40
ENDCHAR
STARTCHAR less
ENCODING 60
SWIDTH 409 0
DWIDTH 4 0
BBX 4 5 0 1
BITMAP
06
14
50
24
05
ENDCHAR
STARTCHAR equal
ENCODING 61
SWIDTH 433 0
DWIDTH 4 0
BBX 4 3 0 1
BITMAP
15
50
55
ENDCHAR
STARTCHAR greater
ENCODING 62
SWIDTH 450 0
DWIDTH 5 0
BBX 4 6 0 1
BITMAP
50
18
02
05
24
50
ENDCHAR
STARTCHAR question
ENCODING 63
SWIDTH 445 0
DWIDTH 4 0
BBX 4 9 0 0
BITMAP
66
01
05
18
20
14
00
00
04
ENDCHAR
STARTCHAR at
ENCODING 64
SWIDTH 945 0
DWIDTH 9 0
BBX 9 9 0 0
BITMAP
01A900
050100
149140
115040
445100
891500
800040
500140
195400
ENDCHAR
STARTCHAR A
ENCODING 65
SWIDTH 390 0
DWIDTH 4 0
BBX 5 8 0 0
BITMAP
1000
3000
6400
5400
4940
9900
8100
4100
ENDCHAR
STARTCHAR B
ENCODING 66
SWIDTH 537 0
DWIDTH 5 0
BBX 5 7 0 0
BITMAP
6600
8500
5980
7040
1100
1500
1400
ENDCHAR
STARTCHAR C
ENCODING 67
SWIDTH 487 0
DWIDTH 5 0
BBX 5 8 0 0
BITMAP
0400
1500
1000
5000
4000
4040
4200
6800
ENDCHAR
STARTCHAR D
ENCODING 68
SWIDTH 554 0
DWIDTH 6 0
BBX 6 7 0 0
BITMAP
6540
2050
2040
1080
1200
1500
1400
ENDCHAR
STARTCHAR E
ENCODING 69
SWIDTH 474 0
DWIDTH 5 0
BBX 5 8 0 0
BITMAP
0100
9800
5000
4100
6400
5040
5500
6400
ENDCHAR
STARTCHAR F
ENCODING 70
SWIDTH 428 0
DWIDTH 4 0
BBX 4 7 0 0
BITMAP
45
A0
80
85
A4
80
40
ENDCHAR
STARTCHAR G
ENCODING 71
SWIDTH 591 0
DWIDTH 6 0
BBX 6 8 0 -1
BITMAP
0100
0400
2000
5190
40C0
8280
6880
0080
ENDCHAR
STARTCHAR H
ENCODING 72
SWIDTH 424 0
DWIDTH 4 0
BBX 4 7 0 0
BITMAP
41
81
82
86
A1
41
41
ENDCHAR
STARTCHAR I
ENCODING 73
SWIDTH 153 0
DWIDTH 2 0
BBX 2 8 0 0
BITMAP
40
40
40
50
50
50
50
50
ENDCHAR
STARTCHAR J
ENCODING 74
SWIDTH 371 0
DWIDTH 4 0
BBX 4 8 0 -1
BITMAP
04
08
04
05
05
01
45
14
ENDCHAR
STARTCHAR K
ENCODING 75
SWIDTH 524 0
DWIDTH 5 0
BBX 5 7 0 0
BITMAP
4000
4500
4800
6000
6000
2540
1000
ENDCHAR
STARTCHAR L
ENCODING 76
SWIDTH 537 0
DWIDTH 5 0
BBX 5 6 0 0
BITMAP
8000
8000
8000
8000
8140
6400
ENDCHAR
STARTCHAR M
ENCODING 77
SWIDTH 682 0
DWIDTH 7 0
BBX 7 8 0 0
BITMAP
4010
A020
5450
4850
4550
5210
5014
5014
ENDCHAR
STARTCHAR N
ENCODING 78
SWIDTH 541 0
DWIDTH 5 0
BBX 5 8 0 0
BITMAP
0040
4080
9080
A480
4880
5280
5080
1040
ENDCHAR
STARTCHAR O
ENCODING 79
SWIDTH 382 0
DWIDTH 4 0
BBX 4 7 0 0
BITMAP
18
22
42
82
81
84
64
ENDCHAR
STARTCHAR P
ENCODING 80
SWIDTH 508 0
DWIDTH 5 0
BBX 5 8 0 0
BITMAP
6640
5080
5140
6900
5000
5000
1000
1000
ENDCHAR
STARTCHAR Q
ENCODING 81
SWIDTH 512 0
DWIDTH 5 0
BBX 5 8 0 0
BITMAP
1500
2140
4040
8040
4140
4240
4240
2940
ENDCHAR
STARTCHAR R
ENCODING 82
SWIDTH 503 0
DWIDTH 5 0
BBX 5 8 0 0
BITMAP
9A40
9080
8500
A400
A000
4900
4040
4000
ENDCHAR
STARTCHAR S
ENCODING 83
SWIDTH 541 0
DWIDTH 5 0
BBX 5 8 0 0
BITMAP
0100
1500
5000
8000
5000
1580
0180
1500
ENDCHAR
STARTCHAR T
ENCODING 84
SWIDTH 595 0
DWIDTH 6 0
BBX 7 7 0 0
BITMAP
5654
4200
0200
0200
0100
0140
0140
ENDCHAR
STARTCHAR U
ENCODING 85
SWIDTH 450 0
DWIDTH 5 0
BBX 5 7 0 -1
BITMAP
8100
8200
8200
8300
4500
6540
0040
ENDCHAR
STARTCHAR V
ENCODING 86
SWIDTH 524 0
DWIDTH 5 0
BBX 5 7 0 0
BITMAP
0080
8080
5040
2140
1600
0A00
0600
ENDCHAR
STARTCHAR W
ENCODING 87
SWIDTH 878 0
DWIDTH 9 0
BBX 9 7 0 0
BITMAP
000140
808100
509200
212100
211500
150C00
0C0400
ENDCHAR
STARTCHAR X
ENCODING 88
SWIDTH 461 0
DWIDTH 5 0
BBX 5 7 0 0
BITMAP
4140
5100
2400
1800
2800
5100
4200
ENDCHAR
STARTCHAR Y
ENCODING 89
SWIDTH 483 0
DWIDTH 5 0
BBX 5 8 0 0
BITMAP
0040
0040
4100
2200
0900
0800
0800
0400
ENDCHAR
STARTCHAR Z
ENCODING 90
SWIDTH 670 0
DWIDTH 7 0
BBX 7 7 0 0
BITMAP
5590
0080
0200
0500
1400
2000
AAA4
ENDCHAR
STARTCHAR bracketleft
ENCODING 91
SWIDTH 470 0
DWIDTH 5 0
BBX 4 12 0 -1
BITMAP
95
80
40
40
40
40
50
10
10
10
10
25
ENDCHAR
STARTCHAR backslash
ENCODING 92
SWIDTH 554 0
DWIDTH 6 0
BBX 6 10 0 0
BITMAP
8000
1000
1000
0400
0800
0500
0200
0140
0080
0050
ENDCHAR
STARTCHAR bracketright
ENCODING 93
SWIDTH 512 0
DWIDTH 5 0
BBX 5 13 0 -1
BITMAP
6640
0140
0140
0140
0140
0040
0040
0080
0080
0080
0080
0080
0680
ENDCHAR
STARTCHAR asciicircum
ENCODING 94
SWIDTH 390 0
DWIDTH 4 0
BBX 4 2 0 7
BITMAP
24
45
ENDCHAR
STARTCHAR underscore
ENCODING 95
SWIDTH 612 0
DWIDTH 6 0
BBX 6 2 0 0
BITMAP
01A0
6900
ENDCHAR
STARTCHAR grave
ENCODING 96
SWIDTH 155 0
DWIDTH 2 0
BBX 1 1 0 6
BITMAP
40
ENDCHAR
STARTCHAR a
ENCODING 97
SWIDTH 366 0
DWIDTH 4 0
BBX 4 6 0 0
BITMAP
04
28
58
99
A5
91
ENDCHAR
STARTCHAR b
ENCODING 98
SWIDTH 442 0
DWIDTH 4 0
BBX 4 9 0 0
BITMAP
40
80
80
80
9A
91
82
49
A0
ENDCHAR
STARTCHAR c
ENCODING 99
SWIDTH 390 0
DWIDTH 4 0
BBX 4 6 0 0
BITMAP
24
54
80
41
41
68
ENDCHAR
STARTCHAR d
ENCODING 100
SWIDTH 316 0
DWIDTH 3 0
BBX 3 10 0 -1
BITMAP
04
08
04
04
68
88
48
58
94
04
ENDCHAR
STARTCHAR e
ENCODING 101
SWIDTH 461 0
DWIDTH 5 0
BBX 5 6 0 0
BITMAP
0400
2500
6800
9040
4200
6800
ENDCHAR
STARTCHAR f
ENCODING 102
SWIDTH 345 0
DWIDTH 3 0
BBX 3 9 0 0
BITMAP
24
24
20
20
28
50
20
20
20
ENDCHAR
STARTCHAR g
ENCODING 103
SWIDTH 437 0
DWIDTH 4 0
BBX 4 11 0 -5
BITMAP
05
16
56
46
A2
52
02
02
01
18
10
ENDCHAR
STARTCHAR h
ENCODING 104
SWIDTH 466 0
DWIDTH 5 0
BBX 5 7 0 0
BITMAP
8000
8000
8A40
9540
A140
9040
4040
ENDCHAR
STARTCHAR i
ENCODING 105
SWIDTH 132 0
DWIDTH 1 0
BBX 1 6 0 0
BITMAP
40
80
80
80
80
40
ENDCHAR
STARTCHAR j
ENCODING 106
SWIDTH 112 0
DWIDTH 1 0
BBX 3 12 -2 -4
BITMAP
04
00
00
08
08
08
08
08
04
04
58
10
ENDCHAR
STARTCHAR k
ENCODING 107
SWIDTH 428 0
DWIDTH 4 0
BBX 4 8 0 0
BITMAP
40
80
82
85
88
A0
A0
86
ENDCHAR
STARTCHAR l
ENCODING 108
SWIDTH 137 0
DWIDTH 1 0
BBX 1 9 0 0
BITMAP
40
40
40
40
40
40
40
40
40
ENDCHAR
STARTCHAR m
ENCODING 109
SWIDTH 579 0
DWIDTH 6 0
BBX 6 6 0 0
BITMAP
8000
55C0
6A80
6640
5550
5010
ENDCHAR
STARTCHAR n
ENCODING 110
SWIDTH 483 0
DWIDTH 5 0
BBX 5 6 0 0
BITMAP
4600
8940
9140
A040
6040
5040
ENDCHAR
STARTCHAR o
ENCODING 111
SWIDTH 266 0
DWIDTH 3 0
BBX 3 6 0 0
BITMAP
10
54
44
84
94
A0
ENDCHAR
STARTCHAR p
ENCODING 112
SWIDTH 482 0
DWIDTH 5 0
BBX 5 8 0 -3
BITMAP
9540
9140
4600
A400
9000
4000
4000
4000
ENDCHAR
STARTCHAR q
ENCODING 113
SWIDTH 408 0
DWIDTH 4 0
BBX 4 8 0 -3
BITMAP
04
25
46
8A
52
02
01
01
ENDCHAR
STARTCHAR r
ENCODING 114
SWIDTH 396 0
DWIDTH 4 0
BBX 4 5 0 0
BITMAP
59
60
60
60
20
ENDCHAR
STARTCHAR s
ENCODING 115
SWIDTH 366 0
DWIDTH 4 0
BBX 4 5 0 0
BITMAP
14
40
99
05
18
ENDCHAR
STARTCHAR t
ENCODING 116
SWIDTH 268 0
DWIDTH 3 0
BBX 4 8 -1 0
BITMAP
10
10
15
74
10
10
14
14
ENDCHAR
STARTCHAR u
ENCODING 117
SWIDTH 387 0
DWIDTH 4 0
BBX 4 5 0 0
BITMAP
45
85
85
89
65
ENDCHAR
STARTCHAR v
ENCODING 118
SWIDTH 354 0
DWIDTH 4 0
BBX 4 5 0 0
BITMAP
05
85
25
28
08
ENDCHAR
STARTCHAR w
ENCODING 119
SWIDTH 566 0
DWIDTH 6 0
BBX 6 5 0 0
BITMAP
4840
5A50
2990
2890
1400
ENDCHAR
STARTCHAR x
ENCODING 120
SWIDTH 454 0
DWIDTH 5 0
BBX 5 7 0 -1
BITMAP
0800
4800
6800
1800
1600
2040
1000
ENDCHAR
STARTCHAR y
ENCODING 121
SWIDTH 363 0
DWIDTH 4 0
BBX 4 9 0 -4
BITMAP
41
51
25
09
09
05
04
04
04
ENDCHAR
STARTCHAR z
ENCODING 122
SWIDTH 618 0
DWIDTH 6 0
BBX 6 5 0 0
BITMAP
1A00
5200
0800
0410
1A90
ENDCHAR
STARTCHAR braceleft
ENCODING 123
SWIDTH 348 0
DWIDTH 3 0
BBX 3 10 0 -1
BITMAP
14
20
10
20
90
60
80
40
80
24
ENDCHAR
STARTCHAR bar
ENCODING 124
SWIDTH 137 0
DWIDTH 1 0
BBX 1 9 0 0
BITMAP
40
40
40
40
40
40
40
40
40
ENDCHAR
STARTCHAR braceright
ENCODING 125
SWIDTH 348 0
DWIDTH 3 0
BBX 3 9 0 -1
BITMAP
54
04
10
18
14
08
04
08
24
ENDCHAR
STARTCHAR asciitilde
ENCODING 126
SWIDTH 458 0
DWIDTH 5 0
BBX 4 2 0 5
BITMAP
5A
05
ENDCHAR
STARTCHAR nonbreakingspace
ENCODING 160
SWIDTH 450 0
DWIDTH 5 0
BBX 1 1 0 0
BITMAP
00
ENDCHAR
STARTCHAR exclamdown
ENCODING 161
SWIDTH 137 0
DWIDTH 1 0
BBX 1 4 0 -1
BITMAP
40
40
40
40
ENDCHAR
STARTCHAR cent
ENCODING 162
SWIDTH 394 0
DWIDTH 4 0
BBX 4 8 0 -1
BITMAP
10
24
54
90
45
45
68
04
ENDCHAR
STARTCHAR sterling
ENCODING 163
SWIDTH 539 0
DWIDTH 5 0
BBX 5 7 0 0
BITMAP
0140
0800
1400
6400
2000
2000
2980
ENDCHAR
STARTCHAR currency
ENCODING 164
SWIDTH 500 0
DWIDTH 5 0
BBX 4 6 0 1
BITMAP
01
2A
21
11
26
55
ENDCHAR
STARTCHAR yen
ENCODING 165
SWIDTH 478 0
DWIDTH 5 0
BBX 3 8 1 0
BITMAP
48
98
70
20
B8
64
20
10
ENDCHAR
STARTCHAR brokenbar
ENCODING 166
SWIDTH 137 0
DWIDTH 1 0
BBX 1 9 0 0
BITMAP
40
40
40
40
40
40
40
40
40
ENDCHAR
STARTCHAR section
ENCODING 167
SWIDTH 366 0
DWIDTH 4 0
BBX 4 8 0 0
BITMAP
04
50
80
A9
88
A9
05
18
ENDCHAR
STARTCHAR dieresis
ENCODING 168
SWIDTH 306 0
DWIDTH 3 0
BBX 2 1 1 7
BITMAP
50
ENDCHAR
STARTCHAR copyright
ENCODING 169
SWIDTH 485 0
DWIDTH 5 0
BBX 5 7 0 0
BITMAP
0900
2540
6880
6080
9640
8600
6800
ENDCHAR
STARTCHAR ordfeminine
ENCODING 170
SWIDTH 227 0
DWIDTH 2 0
BBX 2 3 0 1
BITMAP
10
60
90
ENDCHAR
STARTCHAR guillemotleft
ENCODING 171
SWIDTH 652 0
DWIDTH 7 0
BBX 6 6 0 1
BITMAP
0010
0650
1640
5900
2A80
0510
ENDCHAR
STARTCHAR logicalnot
ENCODING 172
SWIDTH 539 0
DWIDTH 5 0
BBX 4 3 1 1
BITMAP
5A
01
01
ENDCHAR
STARTCHAR uni00AD
ENCODING 173
SWIDTH 399 0
DWIDTH 4 0
BBX 4 1 0 2
BITMAP
69
ENDCHAR
STARTCHAR registered
ENCODING 174
SWIDTH 382 0
DWIDTH 4 0
BBX 5 7 0 0
BITMAP
0900
1240
6580
9880
9580
9200
6900
ENDCHAR
STARTCHAR macron
ENCODING 175
SWIDTH 399 0
DWIDTH 4 0
BBX 4 2 0 6
BITMAP
15
54
ENDCHAR
STARTCHAR degree
ENCODING 176
SWIDTH 201 0
DWIDTH 2 0
BBX 2 2 0 4
BITMAP
50
50
ENDCHAR
STARTCHAR plusminus
ENCODING 177
SWIDTH 466 0
DWIDTH 5 0
BBX 4 5 0 0
BITMAP
14
19
64
19
10
ENDCHAR
STARTCHAR twosuperior
ENCODING 178
SWIDTH 318 0
DWIDTH 3 0
BBX 3 3 0 1
BITMAP
50
10
14
ENDCHAR
STARTCHAR threesuperior
ENCODING 179
SWIDTH 280 0
DWIDTH 3 0
BBX 3 4 0 2
BITMAP
50
10
04
10
ENDCHAR
STARTCHAR acute
ENCODING 180
SWIDTH 155 0
DWIDTH 2 0
BBX 1 1 0 6
BITMAP
80
ENDCHAR
STARTCHAR mu
ENCODING 181
SWIDTH 387 0
DWIDTH 4 0
BBX 4 6 0 -1
BITMAP
85
85
89
99
90
40
ENDCHAR
STARTCHAR paragraph
ENCODING 182
SWIDTH 447 0
DWIDTH 4 0
BBX 4 7 0 0
BITMAP
15
BE
B9
0A
06
06
05
ENDCHAR
STARTCHAR periodcentered
ENCODING 183
SWIDTH 128 0
DWIDTH 1 0
BBX 1 1 0 2
BITMAP
40
ENDCHAR
STARTCHAR cedilla
ENCODING 184
SWIDTH 322 0
DWIDTH 3 0
BBX 3 3 0 -3
BITMAP
50
28
28
ENDCHAR
STARTCHAR onesuperior
ENCODING 185
SWIDTH 112 0
DWIDTH 1 0
BBX 1 3 0 2
BITMAP
40
40
40
ENDCHAR
STARTCHAR ordmasculine
ENCODING 186
SWIDTH 212 0
DWIDTH 2 0
BBX 2 3 0 1
BITMAP
50
50
50
ENDCHAR
STARTCHAR guillemotright
ENCODING 187
SWIDTH 625 0
DWIDTH 6 0
BBX 6 6 0 1
BITMAP
5500
1A80
0220
0580
2640
5400
ENDCHAR
STARTCHAR onequarter
ENCODING 188
SWIDTH 678 0
DWIDTH 7 0
BBX 6 8 0 -1
BITMAP
0400
0400
4480
5140
5590
5040
4040
4000
ENDCHAR
STARTCHAR onehalf
ENCODING 189
SWIDTH 693 0
DWIDTH 7 0
BBX 6 8 0 -1
BITMAP
0100
4400
4400
4940
5440
1140
1250
1000
ENDCHAR
STARTCHAR threequarters
ENCODING 190
SWIDTH 868 0
DWIDTH 9 0
BBX 7 8 0 -1
BITMAP
0010
5470
14A0
11D0
02E4
1510
0110
0100
ENDCHAR
STARTCHAR questiondown
ENCODING 191
SWIDTH 541 0
DWIDTH 5 0
BBX 4 9 1 -1
BITMAP
04
00
00
18
08
20
80
86
50
ENDCHAR
STARTCHAR Agrave
ENCODING 192
SWIDTH 390 0
DWIDTH 4 0
BBX 5 8 0 0
BITMAP
2000
3000
2400
5400
5540
6900
4100
4100
ENDCHAR
STARTCHAR Aacute
ENCODING 193
SWIDTH 390 0
DWIDTH 4 0
BBX 5 9 0 0
BITMAP
2000
1000
3000
6400
5400
4940
9900
8100
4100
ENDCHAR
STARTCHAR Acircumflex
ENCODING 194
SWIDTH 390 0
DWIDTH 4 0
BBX 5 10 0 0
BITMAP
6000
4800
1000
3000
6400
5400
4940
9900
8100
4100
ENDCHAR
STARTCHAR Atilde
ENCODING 195
SWIDTH 390 0
DWIDTH 4 0
BBX 5 10 0 0
BITMAP
A500
0400
1000
3000
6400
5400
4940
9900
8100
4100
ENDCHAR
STARTCHAR Adieresis
ENCODING 196
SWIDTH 390 0
DWIDTH 4 0
BBX 5 9 0 0
BITMAP
4400
1000
3000
6400
5400
4940
9900
8100
4100
ENDCHAR
STARTCHAR Aring
ENCODING 197
SWIDTH 390 0
DWIDTH 4 0
BBX 5 9 0 0
BITMAP
6000
A400
3000
6400
5400
4940
9900
8100
4100
ENDCHAR
STARTCHAR AE
ENCODING 198
SWIDTH 708 0
DWIDTH 7 0
BBX 7 8 0 0
BITMAP
1000
3690
6600
5510
4A40
9A04
8260
4240
ENDCHAR
STARTCHAR Ccedilla
ENCODING 199
SWIDTH 487 0
DWIDTH 5 0
BBX 5 11 0 -3
BITMAP
0400
1500
1000
5000
4000
4040
4200
6800
1000
1900
0600
ENDCHAR
STARTCHAR Egrave
ENCODING 200
SWIDTH 474 0
DWIDTH 5 0
BBX 5 9 0 0
BITMAP
1000
0100
9800
5000
4100
6400
5040
5500
6400
ENDCHAR
STARTCHAR Eacute
ENCODING 201
SWIDTH 474 0
DWIDTH 5 0
BBX 5 8 0 0
BITMAP
0900
9800
5000
4100
6400
5040
5500
6400
ENDCHAR
STARTCHAR Ecircumflex
ENCODING 202
SWIDTH 474 0
DWIDTH 5 0
BBX 5 10 0 0
BITMAP
1800
1200
0100
9800
5000
4100
6400
5040
5500
6400
ENDCHAR
STARTCHAR Edieresis
ENCODING 203
SWIDTH 474 0
DWIDTH 5 0
BBX 5 9 0 0
BITMAP
1400
0100
9800
5000
4100
6400
5040
5500
6400
ENDCHAR
STARTCHAR Igrave
ENCODING 204
SWIDTH 153 0
DWIDTH 2 0
BBX 2 9 0 0
BITMAP
40
40
40
40
50
50
50
50
50
ENDCHAR
STARTCHAR Iacute
ENCODING 205
SWIDTH 153 0
DWIDTH 2 0
BBX 2 9 0 0
BITMAP
50
40
40
40
50
50
50
50
50
ENDCHAR
STARTCHAR Icircumflex
ENCODING 206
SWIDTH 153 0
DWIDTH 2 0
BBX 4 10 -1 0
BITMAP
24
45
10
10
10
14
14
14
14
14
ENDCHAR
STARTCHAR Idieresis
ENCODING 207
SWIDTH 153 0
DWIDTH 2 0
BBX 2 9 0 0
BITMAP
50
40
40
40
50
50
50
50
50
ENDCHAR
STARTCHAR Eth
ENCODING 208
SWIDTH 554 0
DWIDTH 6 0
BBX 6 7 0 0
BITMAP
6540
2050
2040
1080
6600
1500
1400
ENDCHAR
STARTCHAR Ntilde
ENCODING 209
SWIDTH 541 0
DWIDTH 5 0
BBX 5 9 0 0
BITMAP
5A00
0540
4080
9080
A480
4880
5280
5080
1040
ENDCHAR
STARTCHAR Ograve
ENCODING 210
SWIDTH 382 0
DWIDTH 4 0
BBX 4 8 0 0
BITMAP
08
18
22
42
82
81
84
64
ENDCHAR
STARTCHAR Oacute
ENCODING 211
SWIDTH 382 0
DWIDTH 4 0
BBX 4 8 0 0
BITMAP
14
18
22
42
82
81
84
64
ENDCHAR
STARTCHAR Ocircumflex
ENCODING 212
SWIDTH 382 0
DWIDTH 4 0
BBX 4 9 0 0
BITMAP
24
45
18
22
42
82
81
84
64
ENDCHAR
STARTCHAR Otilde
ENCODING 213
SWIDTH 382 0
DWIDTH 4 0
BBX 4 9 0 0
BITMAP
5A
05
18
22
42
82
81
84
64
ENDCHAR
STARTCHAR Odieresis
ENCODING 214
SWIDTH 382 0
DWIDTH 4 0
BBX 4 9 0 0
BITMAP
11
00
18
22
42
82
81
84
64
ENDCHAR
STARTCHAR multiply
ENCODING 215
SWIDTH 454 0
DWIDTH 5 0
BBX 3 4 1 1
BITMAP
44
60
A0
10
ENDCHAR
STARTCHAR Oslash
ENCODING 216
SWIDTH 382 0
DWIDTH 4 0
BBX 4 8 0 -1
BITMAP
19
2A
46
96
91
94
64
40
ENDCHAR
STARTCHAR Ugrave
ENCODING 217
SWIDTH 450 0
DWIDTH 5 0
BBX 5 9 0 -1
BITMAP
1400
0000
8100
8200
8200
8300
4500
6540
0040
ENDCHAR
STARTCHAR Uacute
ENCODING 218
SWIDTH 450 0
DWIDTH 5 0
BBX 5 8 0 -1
BITMAP
0800
8100
8200
8200
8300
4500
6540
0040
ENDCHAR
STARTCHAR Ucircumflex
ENCODING 219
SWIDTH 450 0
DWIDTH 5 0
BBX 5 10 0 -1
BITMAP
1800
1200
0000
8100
8200
8200
8300
4500
6540
0040
ENDCHAR
STARTCHAR Udieresis
ENCODING 220
SWIDTH 450 0
DWIDTH 5 0
BBX 5 9 0 -1
BITMAP
1400
0000
8100
8200
8200
8300
4500
6540
0040
ENDCHAR
STARTCHAR Yacute
ENCODING 221
SWIDTH 483 0
DWIDTH 5 0
BBX 5 9 0 0
BITMAP
0800
0040
0040
4100
2200
0900
0800
0800
0400
ENDCHAR
STARTCHAR Thorn
ENCODING 222
SWIDTH 398 0
DWIDTH 4 0
BBX 4 8 0 0
BITMAP
80
85
A2
82
85
A4
80
40
ENDCHAR
STARTCHAR germandbls
ENCODING 223
SWIDTH 537 0
DWIDTH 5 0
BBX 5 7 0 0
BITMAP
6600
8500
5980
7040
1100
1500
1400
ENDCHAR
STARTCHAR agrave
ENCODING 224
SWIDTH 366 0
DWIDTH 4 0
BBX 4 7 0 0
BITMAP
20
04
28
58
99
A5
91
ENDCHAR
STARTCHAR aacute
ENCODING 225
SWIDTH 366 0
DWIDTH 4 0
BBX 4 7 0 0
BITMAP
14
04
28
58
99
A5
91
ENDCHAR
STARTCHAR acircumflex
ENCODING 226
SWIDTH 366 0
DWIDTH 4 0
BBX 4 9 0 0
BITMAP
24
45
00
04
28
58
99
A5
91
ENDCHAR
STARTCHAR atilde
ENCODING 227
SWIDTH 366 0
DWIDTH 4 0
BBX 4 7 0 0
BITMAP
96
08
28
58
99
A5
91
ENDCHAR
STARTCHAR adieresis
ENCODING 228
SWIDTH 366 0
DWIDTH 4 0
BBX 4 8 0 0
BITMAP
14
00
04
28
58
99
A5
91
ENDCHAR
STARTCHAR aring
ENCODING 229
SWIDTH 366 0
DWIDTH 4 0
BBX 4 7 0 0
BITMAP
18
28
28
58
99
A5
91
ENDCHAR
STARTCHAR ae
ENCODING 230
SWIDTH 705 0
DWIDTH 7 0
BBX 7 6 0 0
BITMAP
0450
2A60
5B40
9A08
A620
9240
ENDCHAR
STARTCHAR ccedilla
ENCODING 231
SWIDTH 390 0
DWIDTH 4 0
BBX 4 9 0 -3
BITMAP
24
54
80
41
41
68
20
18
19
ENDCHAR
STARTCHAR egrave
ENCODING 232
SWIDTH 461 0
DWIDTH 5 0
BBX 5 7 0 0
BITMAP
0400
0400
2500
6800
9040
4200
6800
ENDCHAR
STARTCHAR eacute
ENCODING 233
SWIDTH 461 0
DWIDTH 5 0
BBX 5 7 0 0
BITMAP
0800
0400
2500
6800
9040
4200
6800
ENDCHAR
STARTCHAR ecircumflex
ENCODING 234
SWIDTH 461 0
DWIDTH 5 0
BBX 5 9 0 0
BITMAP
1800
1200
0000
0400
2500
6800
9040
4200
6800
ENDCHAR
STARTCHAR edieresis
ENCODING 235
SWIDTH 461 0
DWIDTH 5 0
BBX 5 8 0 0
BITMAP
1000
0000
0400
2500
6800
9040
4200
6800
ENDCHAR
STARTCHAR igrave
ENCODING 236
SWIDTH 132 0
DWIDTH 1 0
BBX 1 8 0 0
BITMAP
80
00
40
80
80
80
80
40
ENDCHAR
STARTCHAR iacute
ENCODING 237
SWIDTH 132 0
DWIDTH 1 0
BBX 1 8 0 0
BITMAP
40
00
40
80
80
80
80
40
ENDCHAR
STARTCHAR icircumflex
ENCODING 238
SWIDTH 132 0
DWIDTH 1 0
BBX 4 9 -1 0
BITMAP
64
45
00
10
20
20
20
20
10
ENDCHAR
STARTCHAR idieresis
ENCODING 239
SWIDTH 132 0
DWIDTH 1 0
BBX 2 8 0 0
BITMAP
50
00
40
80
80
80
80
40
ENDCHAR
STARTCHAR eth
ENCODING 240
SWIDTH 481 0
DWIDTH 5 0
BBX 5 6 0 0
BITMAP
0800
1940
1100
2900
5600
2800
ENDCHAR
STARTCHAR ntilde
ENCODING 241
SWIDTH 483 0
DWIDTH 5 0
BBX 5 8 0 0
BITMAP
2940
0100
4600
8940
9140
A040
6040
5040
ENDCHAR
STARTCHAR ograve
ENCODING 242
SWIDTH 266 0
DWIDTH 3 0
BBX 3 7 0 0
BITMAP
10
10
54
44
84
94
A0
ENDCHAR
STARTCHAR oacute
ENCODING 243
SWIDTH 266 0
DWIDTH 3 0
BBX 3 7 0 0
BITMAP
20
10
54
44
84
94
A0
ENDCHAR
STARTCHAR ocircumflex
ENCODING 244
SWIDTH 266 0
DWIDTH 3 0
BBX 3 9 0 0
BITMAP
60
48
00
10
54
44
84
94
A0
ENDCHAR
STARTCHAR otilde
ENCODING 245
SWIDTH 266 0
DWIDTH 3 0
BBX 4 7 0 0
BITMAP
A5
24
54
44
84
94
A0
ENDCHAR
STARTCHAR odieresis
ENCODING 246
SWIDTH 266 0
DWIDTH 3 0
BBX 3 8 0 0
BITMAP
40
00
10
54
44
84
94
A0
ENDCHAR
STARTCHAR divide
ENCODING 247
SWIDTH 345 0
DWIDTH 3 0
BBX 3 3 0 1
BITMAP
14
54
10
ENDCHAR
STARTCHAR oslash
ENCODING 248
SWIDTH 266 0
DWIDTH 3 0
BBX 3 7 0 -1
BITMAP
14
64
54
94
94
A0
40
ENDCHAR
STARTCHAR ugrave
ENCODING 249
SWIDTH 387 0
DWIDTH 4 0
BBX 4 7 0 0
BITMAP
10
00
45
85
85
89
65
ENDCHAR
STARTCHAR uacute
ENCODING 250
SWIDTH 387 0
DWIDTH 4 0
BBX 4 7 0 0
BITMAP
14
00
45
85
85
89
65
ENDCHAR
STARTCHAR ucircumflex
ENCODING 251
SWIDTH 387 0
DWIDTH 4 0
BBX 4 9 0 0
BITMAP
24
45
00
00
45
85
85
89
65
ENDCHAR
STARTCHAR udieresis
ENCODING 252
SWIDTH 387 0
DWIDTH 4 0
BBX 4 8 0 0
BITMAP
14
00
00
45
85
85
89
65
ENDCHAR
STARTCHAR yacute
ENCODING 253
SWIDTH 363 0
DWIDTH 4 0
BBX 4 11 0 -4
BITMAP
14
00
41
51
25
09
09
05
04
04
04
ENDCHAR
STARTCHAR thorn
ENCODING 254
SWIDTH 439 0
DWIDTH 4 0
BBX 4 7 0 0
BITMAP
40
96
82
48
A0
40
40
ENDCHAR
STARTCHAR ydieresis
ENCODING 255
SWIDTH 363 0
DWIDTH 4 0
BBX 4 12 0 -4
BITMAP
14
00
00
41
51
25
09
09
05
04
04
04
ENDCHAR
STARTCHAR Amacron
ENCODING 256
SWIDTH 390 0
DWIDTH 4 0
BBX 5 9 0 0
BITMAP
1500
5000
3000
6400
5400
4940
9900
8100
4100
ENDCHAR
STARTCHAR amacron
ENCODING 257
SWIDTH 366 0
DWIDTH 4 0
BBX 4 8 0 0
BITMAP
15
50
04
28
58
99
A5
91
ENDCHAR
STARTCHAR Abreve
ENCODING 258
SWIDTH 390 0
DWIDTH 4 0
BBX 5 9 0 0
BITMAP
2800
1000
3000
6400
5400
4940
9900
8100
4100
ENDCHAR
STARTCHAR abreve
ENCODING 259
SWIDTH 366 0
DWIDTH 4 0
BBX 4 7 0 0
BITMAP
28
04
28
58
99
A5
91
ENDCHAR
STARTCHAR Aogonek
ENCODING 260
SWIDTH 390 0
DWIDTH 4 0
BBX 5 11 0 -3
BITMAP
1000
3000
6400
5400
4940
9900
8100
4100
0500
0540
0100
ENDCHAR
STARTCHAR aogonek
ENCODING 261
SWIDTH 366 0
DWIDTH 4 0
BBX 5 8 0 -2
BITMAP
0400
2800
5800
9900
A500
9500
0800
0A40
ENDCHAR
STARTCHAR Cacute
ENCODING 262
SWIDTH 487 0
DWIDTH 5 0
BBX 5 9 0 0
BITMAP
0800
0400
1500
1000
5000
4000
4040
4200
6800
ENDCHAR
STARTCHAR cacute
ENCODING 263
SWIDTH 390 0
DWIDTH 4 0
BBX 4 8 0 0
BITMAP
14
00
24
54
80
41
41
68
ENDCHAR
STARTCHAR Ccircumflex
ENCODING 264
SWIDTH 487 0
DWIDTH 5 0
BBX 5 10 0 0
BITMAP
1800
1200
0400
1500
1000
5000
4000
4040
4200
6800
ENDCHAR
STARTCHAR ccircumflex
ENCODING 265
SWIDTH 390 0
DWIDTH 4 0
BBX 4 9 0 0
BITMAP
24
45
00
24
54
80
41
41
68
ENDCHAR
STARTCHAR Cdotaccent
ENCODING 266
SWIDTH 487 0
DWIDTH 5 0
BBX 5 9 0 0
BITMAP
0400
0400
1500
1000
5000
4000
4040
4200
6800
ENDCHAR
STARTCHAR cdotaccent
ENCODING 267
SWIDTH 390 0
DWIDTH 4 0
BBX 4 7 0 0
BITMAP
10
24
54
80
41
41
68
ENDCHAR
STARTCHAR Ccaron
ENCODING 268
SWIDTH 487 0
DWIDTH 5 0
BBX 5 9 0 0
BITMAP
1100
1800
1500
1000
5000
4000
4040
4200
6800
ENDCHAR
STARTCHAR ccaron
ENCODING 269
SWIDTH 390 0
DWIDTH 4 0
BBX 4 8 0 0
BITMAP
45
14
24
54
80
41
41
68
ENDCHAR
STARTCHAR Dcaron
ENCODING 270
SWIDTH 554 0
DWIDTH 6 0
BBX 6 9 0 0
BITMAP
1140
0500
6540
2050
2040
1080
1200
1500
1400
ENDCHAR
STARTCHAR Emacron
ENCODING 274
SWIDTH 474 0
DWIDTH 5 0
BBX 5 9 0 0
BITMAP
1500
5500
9800
5000
4100
6400
5040
5500
6400
ENDCHAR
STARTCHAR emacron
ENCODING 275
SWIDTH 461 0
DWIDTH 5 0
BBX 5 8 0 0
BITMAP
1500
1400
0400
2500
6800
9040
4200
6800
ENDCHAR
STARTCHAR Ebreve
ENCODING 276
SWIDTH 474 0
DWIDTH 5 0
BBX 5 9 0 0
BITMAP
1900
0100
9800
5000
4100
6400
5040
5500
6400
ENDCHAR
STARTCHAR ebreve
ENCODING 277
SWIDTH 461 0
DWIDTH 5 0
BBX 5 7 0 0
BITMAP
1900
0400
2500
6800
9040
4200
6800
ENDCHAR
STARTCHAR Edotaccent
ENCODING 278
SWIDTH 474 0
DWIDTH 5 0
BBX 5 8 0 0
BITMAP
1100
9800
5000
4100
6400
5040
5500
6400
ENDCHAR
STARTCHAR edotaccent
ENCODING 279
SWIDTH 461 0
DWIDTH 5 0
BBX 5 6 0 0
BITMAP
0800
2500
6800
9040
4200
6800
ENDCHAR
STARTCHAR Eogonek
ENCODING 280
SWIDTH 474 0
DWIDTH 5 0
BBX 5 9 0 -1
BITMAP
0100
9800
5000
4100
6400
5040
5500
6800
0A40
ENDCHAR
STARTCHAR eogonek
ENCODING 281
SWIDTH 461 0
DWIDTH 5 0
BBX 5 8 0 -2
BITMAP
0400
2500
6800
9040
4200
6800
2000
1900
ENDCHAR
STARTCHAR Ecaron
ENCODING 282
SWIDTH 474 0
DWIDTH 5 0
BBX 5 9 0 0
BITMAP
5100
1500
9800
5000
4100
6400
5040
5500
6400
ENDCHAR
STARTCHAR ecaron
ENCODING 283
SWIDTH 461 0
DWIDTH 5 0
BBX 5 8 0 0
BITMAP
1100
1400
0400
2500
6800
9040
4200
6800
ENDCHAR
STARTCHAR Gcircumflex
ENCODING 284
SWIDTH 591 0
DWIDTH 6 0
BBX 6 10 0 -1
BITMAP
0900
1140
0100
0400
2000
5190
40C0
8280
6880
0080
ENDCHAR
STARTCHAR gcircumflex
ENCODING 285
SWIDTH 437 0
DWIDTH 4 0
BBX 4 14 0 -5
BITMAP
18
52
00
05
16
56
46
A2
52
02
02
01
18
10
ENDCHAR
STARTCHAR Gbreve
ENCODING 286
SWIDTH 591 0
DWIDTH 6 0
BBX 6 9 0 -1
BITMAP
0600
0100
0400
2000
5190
40C0
8280
6880
0080
ENDCHAR
STARTCHAR gbreve
ENCODING 287
SWIDTH 437 0
DWIDTH 4 0
BBX 4 13 0 -5
BITMAP
19
00
05
16
56
46
A2
52
02
02
01
18
10
ENDCHAR
STARTCHAR Gdotaccent
ENCODING 288
SWIDTH 591 0
DWIDTH 6 0
BBX 6 9 0 -1
BITMAP
0100
0100
0500
1000
11A0
4090
8180
6940
0050
ENDCHAR
STARTCHAR gdotaccent
ENCODING 289
SWIDTH 437 0
DWIDTH 4 0
BBX 4 12 0 -5
BITMAP
04
05
16
56
46
A2
52
02
02
01
18
10
ENDCHAR
STARTCHAR Gcommaaccent
ENCODING 290
SWIDTH 591 0
DWIDTH 6 0
BBX 6 10 0 -3
BITMAP
0100
0400
2000
5190
40C0
8280
6880
0080
0500
0400
ENDCHAR
STARTCHAR Hcircumflex
ENCODING 292
SWIDTH 424 0
DWIDTH 4 0
BBX 4 10 0 0
BITMAP
24
45
00
41
81
82
86
A1
41
41
ENDCHAR
STARTCHAR hcircumflex
ENCODING 293
SWIDTH 466 0
DWIDTH 5 0
BBX 5 9 0 0
BITMAP
0900
1440
8000
8000
8A40
9540
A140
9040
4040
ENDCHAR
STARTCHAR Hbar
ENCODING 294
SWIDTH 424 0
DWIDTH 4 0
BBX 4 7 0 0
BITMAP
41
81
9A
86
A1
41
41
ENDCHAR
STARTCHAR hbar
ENCODING 295
SWIDTH 466 0
DWIDTH 5 0
BBX 6 7 -1 0
BITMAP
2000
2500
6690
2550
2850
2410
1010
ENDCHAR
STARTCHAR Itilde
ENCODING 296
SWIDTH 153 0
DWIDTH 2 0
BBX 4 10 -1 0
BITMAP
A6
04
10
10
10
14
14
14
14
14
ENDCHAR
STARTCHAR itilde
ENCODING 297
SWIDTH 132 0
DWIDTH 1 0
BBX 4 8 -1 0
BITMAP
A1
18
10
20
20
20
20
10
ENDCHAR
STARTCHAR imacron
ENCODING 299
SWIDTH 132 0
DWIDTH 1 0
BBX 4 8 -1 0
BITMAP
15
50
10
20
20
20
20
10
ENDCHAR
STARTCHAR Ibreve
ENCODING 300
SWIDTH 153 0
DWIDTH 2 0
BBX 2 9 0 0
BITMAP
A0
40
40
40
50
50
50
50
50
ENDCHAR
STARTCHAR ibreve
ENCODING 301
SWIDTH 132 0
DWIDTH 1 0
BBX 3 8 -1 0
BITMAP
58
14
10
20
20
20
20
10
ENDCHAR
STARTCHAR Iogonek
ENCODING 302
SWIDTH 153 0
DWIDTH 2 0
BBX 3 10 0 -2
BITMAP
40
40
40
50
50
50
50
50
80
64
ENDCHAR
STARTCHAR iogonek
ENCODING 303
SWIDTH 132 0
DWIDTH 1 0
BBX 2 9 0 -3
BITMAP
40
80
80
80
80
80
40
90
40
ENDCHAR
STARTCHAR Idotaccent
ENCODING 304
SWIDTH 153 0
DWIDTH 2 0
BBX 1 9 0 0
BITMAP
40
40
40
40
40
40
40
40
40
ENDCHAR
STARTCHAR dotlessi
ENCODING 305
SWIDTH 132 0
DWIDTH 1 0
BBX 1 6 0 0
BITMAP
40
80
80
80
80
40
ENDCHAR
STARTCHAR Jcircumflex
ENCODING 308
SWIDTH 371 0
DWIDTH 4 0
BBX 4 10 0 -1
BITMAP
18
12
04
08
04
05
05
01
45
14
ENDCHAR
STARTCHAR jcircumflex
ENCODING 309
SWIDTH 112 0
DWIDTH 1 0
BBX 4 13 -2 -4
BITMAP
19
11
00
00
08
08
08
08
08
04
04
58
10
ENDCHAR
STARTCHAR Kcommaaccent
ENCODING 310
SWIDTH 524 0
DWIDTH 5 0
BBX 5 10 0 -3
BITMAP
4000
4500
4800
6000
6000
2540
1000
0000
0800
0800
ENDCHAR
STARTCHAR kcommaaccent
ENCODING 311
SWIDTH 428 0
DWIDTH 4 0
BBX 4 11 0 -3
BITMAP
40
80
82
85
88
A0
A0
86
00
14
14
ENDCHAR
STARTCHAR Lacute
ENCODING 313
SWIDTH 537 0
DWIDTH 5 0
BBX 5 7 0 0
BITMAP
0500
8000
8000
8000
8000
8140
6400
ENDCHAR
STARTCHAR lacute
ENCODING 314
SWIDTH 137 0
DWIDTH 1 0
BBX 1 11 0 0
BITMAP
80
00
40
40
40
40
40
40
40
40
40
ENDCHAR
STARTCHAR Lcommaaccent
ENCODING 315
SWIDTH 537 0
DWIDTH 5 0
BBX 5 9 0 -3
BITMAP
8000
8000
8000
8000
8140
6400
0000
0800
0800
ENDCHAR
STARTCHAR lcommaaccent
ENCODING 316
SWIDTH 137 0
DWIDTH 1 0
BBX 1 12 0 -3
BITMAP
40
40
40
40
40
40
40
40
40
00
80
80
ENDCHAR
STARTCHAR Lcaron
ENCODING 317
SWIDTH 537 0
DWIDTH 5 0
BBX 5 9 0 0
BITMAP
5100
1400
0000
8000
8000
8000
8000
8140
6400
ENDCHAR
STARTCHAR Ldot
ENCODING 319
SWIDTH 537 0
DWIDTH 5 0
BBX 5 6 0 0
BITMAP
8000
8000
8000
8400
8140
6400
ENDCHAR
STARTCHAR ldot
ENCODING 320
SWIDTH 267 0
DWIDTH 3 0
BBX 2 9 0 0
BITMAP
40
40
40
40
40
40
50
40
40
ENDCHAR
STARTCHAR Lslash
ENCODING 321
SWIDTH 537 0
DWIDTH 5 0
BBX 5 6 0 0
BITMAP
8000
8000
8400
A400
8140
6400
ENDCHAR
STARTCHAR lslash
ENCODING 322
SWIDTH 137 0
DWIDTH 1 0
BBX 3 9 -1 0
BITMAP
10
10
10
10
10
10
68
10
10
ENDCHAR
STARTCHAR Nacute
ENCODING 323
SWIDTH 541 0
DWIDTH 5 0
BBX 5 8 0 0
BITMAP
0840
4080
9080
A480
4880
5280
5080
1040
ENDCHAR
STARTCHAR nacute
ENCODING 324
SWIDTH 483 0
DWIDTH 5 0
BBX 5 7 0 0
BITMAP
0800
4600
8940
9140
A040
6040
5040
ENDCHAR
STARTCHAR Ncommaaccent
ENCODING 325
SWIDTH 541 0
DWIDTH 5 0
BBX 5 11 0 -3
BITMAP
0040
4080
9080
A480
4880
5280
5080
1040
0000
0800
0800
ENDCHAR
STARTCHAR ncommaaccent
ENCODING 326
SWIDTH 483 0
DWIDTH 5 0
BBX 5 9 0 -3
BITMAP
4600
8940
9140
A040
6040
5040
0000
0800
0800
ENDCHAR
STARTCHAR Ncaron
ENCODING 327
SWIDTH 541 0
DWIDTH 5 0
BBX 5 9 0 0
BITMAP
1100
0440
4080
9080
A480
4880
5280
5080
1040
ENDCHAR
STARTCHAR ncaron
ENCODING 328
SWIDTH 483 0
DWIDTH 5 0
BBX 5 8 0 0
BITMAP
1100
1400
4600
8940
9140
A040
6040
5040
ENDCHAR
STARTCHAR napostrophe
ENCODING 329
SWIDTH 483 0
DWIDTH 5 0
BBX 5 9 0 0
BITMAP
2000
2000
0000
4600
8940
9140
A040
6040
5040
ENDCHAR
STARTCHAR Omacron
ENCODING 332
SWIDTH 382 0
DWIDTH 4 0
BBX 4 9 0 0
BITMAP
05
14
18
22
42
82
81
84
64
ENDCHAR
STARTCHAR omacron
ENCODING 333
SWIDTH 266 0
DWIDTH 3 0
BBX 3 8 0 0
BITMAP
54
50
10
54
44
84
94
A0
ENDCHAR
STARTCHAR Obreve
ENCODING 334
SWIDTH 382 0
DWIDTH 4 0
BBX 4 8 0 0
BITMAP
28
18
22
42
82
81
84
64
ENDCHAR
STARTCHAR obreve
ENCODING 335
SWIDTH 266 0
DWIDTH 3 0
BBX 3 7 0 0
BITMAP
64
10
54
44
84
94
A0
ENDCHAR
STARTCHAR Ohungarumlaut
ENCODING 336
SWIDTH 382 0
DWIDTH 4 0
BBX 4 9 0 0
BITMAP
0A
00
18
22
42
82
81
84
64
ENDCHAR
STARTCHAR ohungarumlaut
ENCODING 337
SWIDTH 266 0
DWIDTH 3 0
BBX 3 7 0 0
BITMAP
64
60
54
44
84
94
A0
ENDCHAR
STARTCHAR OE
ENCODING 338
SWIDTH 732 0
DWIDTH 7 0
BBX 7 7 0 0
BITMAP
1A60
2200
4210
8250
8304
8614
6680
ENDCHAR
STARTCHAR oe
ENCODING 339
SWIDTH 628 0
DWIDTH 6 0
BBX 6 6 0 0
BITMAP
1040
5650
4E40
8C10
9820
A640
ENDCHAR
STARTCHAR Racute
ENCODING 340
SWIDTH 503 0
DWIDTH 5 0
BBX 5 9 0 0
BITMAP
0500
9A40
9080
8500
A400
A000
4900
4040
4000
ENDCHAR
STARTCHAR racute
ENCODING 341
SWIDTH 396 0
DWIDTH 4 0
BBX 4 7 0 0
BITMAP
14
00
59
60
60
60
20
ENDCHAR
STARTCHAR Rcommaaccent
ENCODING 342
SWIDTH 503 0
DWIDTH 5 0
BBX 5 11 0 -3
BITMAP
9A40
9080
8500
A400
A000
4900
4040
4000
0000
0800
0800
ENDCHAR
STARTCHAR rcommaaccent
ENCODING 343
SWIDTH 396 0
DWIDTH 4 0
BBX 4 8 0 -3
BITMAP
59
60
60
60
20
00
14
10
ENDCHAR
STARTCHAR Rcaron
ENCODING 344
SWIDTH 503 0
DWIDTH 5 0
BBX 5 10 0 0
BITMAP
1100
0400
9A40
9080
8500
A400
A000
4900
4040
4000
ENDCHAR
STARTCHAR rcaron
ENCODING 345
SWIDTH 396 0
DWIDTH 4 0
BBX 4 8 0 0
BITMAP
45
14
00
59
60
60
60
20
ENDCHAR
STARTCHAR Sacute
ENCODING 346
SWIDTH 541 0
DWIDTH 5 0
BBX 5 9 0 0
BITMAP
0500
0100
1500
5000
8000
5000
1580
0180
1500
ENDCHAR
STARTCHAR sacute
ENCODING 347
SWIDTH 366 0
DWIDTH 4 0
BBX 4 7 0 0
BITMAP
14
00
14
40
99
05
18
ENDCHAR
STARTCHAR Scircumflex
ENCODING 348
SWIDTH 541 0
DWIDTH 5 0
BBX 5 10 0 0
BITMAP
0900
1140
0100
1500
5000
8000
5000
1580
0180
1500
ENDCHAR
STARTCHAR scircumflex
ENCODING 349
SWIDTH 366 0
DWIDTH 4 0
BBX 4 8 0 0
BITMAP
24
45
00
14
40
99
05
18
ENDCHAR
STARTCHAR Scedilla
ENCODING 350
SWIDTH 541 0
DWIDTH 5 0
BBX 6 11 0 -3
BITMAP
0100
1500
5000
8000
5000
1580
0180
1500
0200
0190
0190
ENDCHAR
STARTCHAR scedilla
ENCODING 351
SWIDTH 366 0
DWIDTH 4 0
BBX 4 8 0 -3
BITMAP
14
40
99
05
18
20
19
1A
ENDCHAR
STARTCHAR Scaron
ENCODING 352
SWIDTH 541 0
DWIDTH 5 0
BBX 5 9 0 0
BITMAP
1100
0900
1500
5000
8000
5000
1580
0180
1500
ENDCHAR
STARTCHAR scaron
ENCODING 353
SWIDTH 366 0
DWIDTH 4 0
BBX 4 8 0 0
BITMAP
45
14
00
14
40
99
05
18
ENDCHAR
STARTCHAR Tcommaaccent
ENCODING 354
SWIDTH 595 0
DWIDTH 6 0
BBX 7 10 0 -3
BITMAP
5654
4200
0200
0200
0100
0140
0140
0000
0080
0040
ENDCHAR
STARTCHAR tcommaaccent
ENCODING 355
SWIDTH 268 0
DWIDTH 3 0
BBX 4 11 -1 -3
BITMAP
10
10
15
74
10
10
14
14
00
08
08
ENDCHAR
STARTCHAR Tcaron
ENCODING 356
SWIDTH 595 0
DWIDTH 6 0
BBX 7 10 0 0
BITMAP
0450
0140
0000
5654
4200
0200
0200
0100
0140
0140
ENDCHAR
STARTCHAR Tbar
ENCODING 358
SWIDTH 595 0
DWIDTH 6 0
BBX 7 7 0 0
BITMAP
5654
4200
0680
0200
0100
0140
0140
ENDCHAR
STARTCHAR Utilde
ENCODING 360
SWIDTH 450 0
DWIDTH 5 0
BBX 5 9 0 -1
BITMAP
5A00
0500
8100
8200
8200
8300
4500
6540
0040
ENDCHAR
STARTCHAR utilde
ENCODING 361
SWIDTH 387 0
DWIDTH 4 0
BBX 4 7 0 0
BITMAP
A6
04
45
85
85
89
65
ENDCHAR
STARTCHAR Umacron
ENCODING 362
SWIDTH 450 0
DWIDTH 5 0
BBX 5 9 0 -1
BITMAP
1500
1500
8100
8200
8200
8300
4500
6540
0040
ENDCHAR
STARTCHAR umacron
ENCODING 363
SWIDTH 387 0
DWIDTH 4 0
BBX 4 8 0 0
BITMAP
15
54
00
45
85
85
89
65
ENDCHAR
STARTCHAR Ubreve
ENCODING 364
SWIDTH 450 0
DWIDTH 5 0
BBX 5 8 0 -1
BITMAP
1900
8100
8200
8200
8300
4500
6540
0040
ENDCHAR
STARTCHAR ubreve
ENCODING 365
SWIDTH 387 0
DWIDTH 4 0
BBX 4 7 0 0
BITMAP
28
00
45
85
85
89
65
ENDCHAR
STARTCHAR Uring
ENCODING 366
SWIDTH 450 0
DWIDTH 5 0
BBX 5 9 0 -1
BITMAP
1800
2500
8100
8200
8200
8300
4500
6540
0040
ENDCHAR
STARTCHAR uring
ENCODING 367
SWIDTH 387 0
DWIDTH 4 0
BBX 4 7 0 0
BITMAP
18
28
45
85
85
89
65
ENDCHAR
STARTCHAR Uhungarumlaut
ENCODING 368
SWIDTH 450 0
DWIDTH 5 0
BBX 5 9 0 -1
BITMAP
1900
0400
8100
8200
8200
8300
4500
6540
0040
ENDCHAR
STARTCHAR uhungarumlaut
ENCODING 369
SWIDTH 387 0
DWIDTH 4 0
BBX 4 7 0 0
BITMAP
28
00
45
85
85
89
65
ENDCHAR
STARTCHAR Uogonek
ENCODING 370
SWIDTH 450 0
DWIDTH 5 0
BBX 5 9 0 -3
BITMAP
8100
8200
8200
8300
4500
6540
0240
0100
0280
ENDCHAR
STARTCHAR uogonek
ENCODING 371
SWIDTH 387 0
DWIDTH 4 0
BBX 4 8 0 -3
BITMAP
45
85
85
89
65
08
09
01
ENDCHAR
STARTCHAR Wcircumflex
ENCODING 372
SWIDTH 878 0
DWIDTH 9 0
BBX 9 10 0 0
BITMAP
018000
012000
000000
000140
808100
509200
212100
211500
150C00
0C0400
ENDCHAR
STARTCHAR wcircumflex
ENCODING 373
SWIDTH 566 0
DWIDTH 6 0
BBX 6 9 0 0
BITMAP
0900
1140
0000
0000
4840
5A50
2990
2890
1400
ENDCHAR
STARTCHAR Ycircumflex
ENCODING 374
SWIDTH 483 0
DWIDTH 5 0
BBX 5 10 0 0
BITMAP
1800
1200
0040
0040
4100
2200
0900
0800
0800
0400
ENDCHAR
STARTCHAR ycircumflex
ENCODING 375
SWIDTH 363 0
DWIDTH 4 0
BBX 4 13 0 -4
BITMAP
24
45
00
00
41
51
25
09
09
05
04
04
04
ENDCHAR
STARTCHAR Ydieresis
ENCODING 376
SWIDTH 483 0
DWIDTH 5 0
BBX 5 8 0 0
BITMAP
1140
0040
4100
2200
0900
0800
0800
0400
ENDCHAR
STARTCHAR Zacute
ENCODING 377
SWIDTH 670 0
DWIDTH 7 0
BBX 7 9 0 0
BITMAP
0500
0000
5590
0080
0200
0500
1400
2000
AAA4
ENDCHAR
STARTCHAR zacute
ENCODING 378
SWIDTH 618 0
DWIDTH 6 0
BBX 6 7 0 0
BITMAP
0200
0000
1A00
5200
0800
0410
1A90
ENDCHAR
STARTCHAR Zdotaccent
ENCODING 379
SWIDTH 670 0
DWIDTH 7 0
BBX 7 8 0 0
BITMAP
0100
5590
0080
0200
0500
1400
2000
AAA4
ENDCHAR
STARTCHAR zdotaccent
ENCODING 380
SWIDTH 618 0
DWIDTH 6 0
BBX 6 6 0 0
BITMAP
0100
1A00
5200
0800
0410
1A90
ENDCHAR
STARTCHAR Zcaron
ENCODING 381
SWIDTH 670 0
DWIDTH 7 0
BBX 7 9 0 0
BITMAP
0440
0100
5590
0080
0200
0500
1400
2000
AAA4
ENDCHAR
STARTCHAR zcaron
ENCODING 382
SWIDTH 618 0
DWIDTH 6 0
BBX 6 7 0 0
BITMAP
1140
0500
1A00
5200
0800
0410
1A90
ENDCHAR
STARTCHAR florin
ENCODING 402
SWIDTH 345 0
DWIDTH 3 0
BBX 3 12 0 -3
BITMAP
24
24
20
20
28
50
10
20
20
20
20
50
ENDCHAR
STARTCHAR AEacute
ENCODING 508
SWIDTH 708 0
DWIDTH 7 0
BBX 7 9 0 0
BITMAP
0500
1000
3690
6600
5510
4A40
9A04
8260
4240
ENDCHAR
STARTCHAR aeacute
ENCODING 509
SWIDTH 705 0
DWIDTH 7 0
BBX 7 7 0 0
BITMAP
0200
0450
2A60
5B40
9A08
A620
9240
ENDCHAR
STARTCHAR Oslashacute
ENCODING 510
SWIDTH 382 0
DWIDTH 4 0
BBX 4 10 0 -1
BITMAP
08
00
19
2A
46
96
91
94
64
40
ENDCHAR
STARTCHAR oslashacute
ENCODING 511
SWIDTH 266 0
DWIDTH 3 0
BBX 3 8 0 -1
BITMAP
20
14
64
54
94
94
A0
40
ENDCHAR
STARTCHAR Scommaaccent
ENCODING 536
SWIDTH 541 0
DWIDTH 5 0
BBX 5 11 0 -3
BITMAP
0100
1500
5000
8000
5000
1580
0180
1500
0000
0800
0800
ENDCHAR
STARTCHAR scommaaccent
ENCODING 537
SWIDTH 366 0
DWIDTH 4 0
BBX 4 8 0 -3
BITMAP
14
40
99
05
18
00
20
10
ENDCHAR
STARTCHAR circumflex
ENCODING 710
SWIDTH 390 0
DWIDTH 4 0
BBX 4 2 0 7
BITMAP
24
45
ENDCHAR
STARTCHAR caron
ENCODING 711
SWIDTH 390 0
DWIDTH 4 0
BBX 4 2 0 6
BITMAP
51
14
ENDCHAR
STARTCHAR breve
ENCODING 728
SWIDTH 390 0
DWIDTH 4 0
BBX 2 1 1 6
BITMAP
A0
ENDCHAR
STARTCHAR dotaccent
ENCODING 729
SWIDTH 128 0
DWIDTH 1 0
BBX 1 1 0 5
BITMAP
40
ENDCHAR
STARTCHAR ring
ENCODING 730
SWIDTH 266 0
DWIDTH 3 0
BBX 3 2 0 5
BITMAP
64
94
ENDCHAR
STARTCHAR ogonek
ENCODING 731
SWIDTH 366 0
DWIDTH 4 0
BBX 2 3 1 -3
BITMAP
80
90
50
ENDCHAR
STARTCHAR tilde
ENCODING 732
SWIDTH 458 0
DWIDTH 5 0
BBX 4 2 0 5
BITMAP
5A
05
ENDCHAR
STARTCHAR hungarumlaut
ENCODING 733
SWIDTH 239 0
DWIDTH 2 0
BBX 2 2 0 4
BITMAP
A0
10
ENDCHAR
STARTCHAR Wgrave
ENCODING 7808
SWIDTH 878 0
DWIDTH 9 0
BBX 9 9 0 0
BITMAP
008000
000000
000140
808100
509200
212100
211500
150C00
0C0400
ENDCHAR
STARTCHAR wgrave
ENCODING 7809
SWIDTH 566 0
DWIDTH 6 0
BBX 6 7 0 0
BITMAP
0800
0000
4840
5A50
2990
2890
1400
ENDCHAR
STARTCHAR Wacute
ENCODING 7810
SWIDTH 878 0
DWIDTH 9 0
BBX 9 9 0 0
BITMAP
014000
000000
000140
808100
509200
212100
211500
150C00
0C0400
ENDCHAR
STARTCHAR wacute
ENCODING 7811
SWIDTH 566 0
DWIDTH 6 0
BBX 6 7 0 0
BITMAP
0500
0000
4840
5A50
2990
2890
1400
ENDCHAR
STARTCHAR Wdieresis
ENCODING 7812
SWIDTH 878 0
DWIDTH 9 0
BBX 9 9 0 0
BITMAP
011000
000000
000140
808100
509200
212100
211500
150C00
0C0400
ENDCHAR
STARTCHAR wdieresis
ENCODING 7813
SWIDTH 566 0
DWIDTH 6 0
BBX 6 8 0 0
BITMAP
0500
0000
0000
4840
5A50
2990
2890
1400
ENDCHAR
STARTCHAR Ygrave
ENCODING 7922
SWIDTH 483 0
DWIDTH 5 0
BBX 5 9 0 0
BITMAP
0800
0040
0040
4100
2200
0900
0800
0800
0400
ENDCHAR
STARTCHAR ygrave
ENCODING 7923
SWIDTH 363 0
DWIDTH 4 0
BBX 4 11 0 -4
BITMAP
20
00
41
51
25
09
09
05
04
04
04
ENDCHAR
STARTCHAR endash
ENCODING 8211
SWIDTH 399 0
DWIDTH 4 0
BBX 4 1 0 2
BITMAP
69
ENDCHAR
STARTCHAR emdash
ENCODING 8212
SWIDTH 549 0
DWIDTH 6 0
BBX 5 1 0 2
BITMAP
5A40
ENDCHAR
STARTCHAR quoteleft
ENCODING 8216
SWIDTH 155 0
DWIDTH 2 0
BBX 1 3 0 3
BITMAP
80
40
40
ENDCHAR
STARTCHAR quoteright
ENCODING 8217
SWIDTH 155 0
DWIDTH 2 0
BBX 1 3 0 3
BITMAP
80
40
40
ENDCHAR
STARTCHAR quotesinglbase
ENCODING 8218
SWIDTH 155 0
DWIDTH 2 0
BBX 1 3 0 0
BITMAP
40
40
40
ENDCHAR
STARTCHAR quotedblleft
ENCODING 8220
SWIDTH 212 0
DWIDTH 2 0
BBX 2 3 0 5
BITMAP
50
50
50
ENDCHAR
STARTCHAR quotedblright
ENCODING 8221
SWIDTH 212 0
DWIDTH 2 0
BBX 2 3 0 5
BITMAP
50
50
50
ENDCHAR
STARTCHAR quotedblbase
ENCODING 8222
SWIDTH 212 0
DWIDTH 2 0
BBX 2 3 0 0
BITMAP
50
50
50
ENDCHAR
STARTCHAR dagger
ENCODING 8224
SWIDTH 268 0
DWIDTH 3 0
BBX 4 8 -1 0
BITMAP
10
10
15
74
10
10
14
14
ENDCHAR
STARTCHAR daggerdbl
ENCODING 8225
SWIDTH 326 0
DWIDTH 3 0
BBX 3 8 0 0
BITMAP
10
20
24
A4
68
20
20
20
ENDCHAR
STARTCHAR bullet
ENCODING 8226
SWIDTH 189 0
DWIDTH 2 0
BBX 2 2 0 2
BITMAP
50
50
ENDCHAR
STARTCHAR ellipsis
ENCODING 8230
SWIDTH 387 0
DWIDTH 4 0
BBX 4 1 0 0
BITMAP
55
ENDCHAR
STARTCHAR guilsinglleft
ENCODING 8249
SWIDTH 409 0
DWIDTH 4 0
BBX 4 5 0 1
BITMAP
06
14
50
24
05
ENDCHAR
STARTCHAR guilsinglright
ENCODING 8250
SWIDTH 450 0
DWIDTH 5 0
BBX 4 6 0 1
BITMAP
50
18
02
05
24
50
ENDCHAR
STARTCHAR fraction
ENCODING 8260
SWIDTH 306 0
DWIDTH 3 0
BBX 3 8 0 -1
BITMAP
04
04
10
10
10
40
40
40
ENDCHAR
STARTCHAR Euro
ENCODING 8364
SWIDTH 589 0
DWIDTH 6 0
BBX 6 8 0 0
BITMAP
0100
0540
0400
1400
6400
6500
6010
1A80
ENDCHAR
STARTCHAR trademark
ENCODING 8482
SWIDTH 1278 0
DWIDTH 13 0
BBX 13 8 0 0
BITMAP
00040100
565A0600
42054500
02048500
02045500
01052100
01450140
01450140
ENDCHAR
STARTCHAR minus
ENCODING 8722
SWIDTH 358 0
DWIDTH 4 0
BBX 3 2 0 2
BITMAP
04
54
ENDCHAR
STARTCHAR commaaccent
ENCODING 63171
SWIDTH 450 0
DWIDTH 5 0
BBX 2 2 1 -3
BITMAP
50
50
ENDCHAR
STARTCHAR fi
ENCODING 64257
SWIDTH 409 0
DWIDTH 4 0
BBX 4 9 0 0
BITMAP
24
24
20
21
2A
52
22
22
21
ENDCHAR
STARTCHAR fl
ENCODING 64258
SWIDTH 416 0
DWIDTH 4 0
BBX 4 9 0 0
BITMAP
24
25
21
21
2A
51
21
22
22
ENDCHAR
STARTCHAR .notdef
ENCODING -1
SWIDTH 450 0
DWIDTH 5 0
BBX 1 1 0 0
BITMAP
00
ENDCHAR
STARTCHAR .null
ENCODING -1
SWIDTH 0 0
DWIDTH 0 0
BBX 1 1 0 0
BITMAP
00
ENDCHAR
STARTCHAR nonmarkingreturn
ENCODING -1
SWIDTH 450 0
DWIDTH 5 0
BBX 1 1 0 0
BITMAP
00
ENDCHAR
ENDFONT
